<?xml version="1.0" encoding="UTF-8" standalone="no"?>
<!-- Created with Inkscape (http://www.inkscape.org/) -->

<svg
   width="120"
   height="120"
   viewBox="0 0 120 120"
   version="1.1"
   id="svg5"
   sodipodi:docname="円.svg"
   inkscape:version="1.1.1 (3bf5ae0d25, 2021-09-20)"
   xmlns:inkscape="http://www.inkscape.org/namespaces/inkscape"
   xmlns:sodipodi="http://sodipodi.sourceforge.net/DTD/sodipodi-0.dtd"
   xmlns="http://www.w3.org/2000/svg"
   xmlns:svg="http://www.w3.org/2000/svg">
  <sodipodi:namedview
     id="namedview7"
     pagecolor="#ffffff"
     bordercolor="#666666"
     borderopacity="1.0"
     inkscape:pageshadow="2"
     inkscape:pageopacity="0.0"
     inkscape:pagecheckerboard="0"
     inkscape:document-units="px"
     showgrid="false"
     inkscape:zoom="3.4666667"
     inkscape:cx="21.346154"
     inkscape:cy="49.759615"
     inkscape:window-width="1920"
     inkscape:window-height="1017"
     inkscape:window-x="-8"
     inkscape:window-y="-8"
     inkscape:window-maximized="1"
     inkscape:current-layer="layer1" />
  <defs
     id="defs2" />
  <g
     inkscape:label="Layer 1"
     inkscape:groupmode="layer"
     id="layer1">
    <path
       id="path185"
       style="fill:#f2f2f2"
       d="M 60 3.1738281 A 56.826923 56.826923 0 0 0 3.1738281 60 A 56.826923 56.826923 0 0 0 60 116.82617 A 56.826923 56.826923 0 0 0 116.82617 60 A 56.826923 56.826923 0 0 0 60 3.1738281 z M 60 19.470703 A 40.528847 40.528847 0 0 1 100.5293 60 A 40.528847 40.528847 0 0 1 60 100.5293 A 40.528847 40.528847 0 0 1 19.470703 60 A 40.528847 40.528847 0 0 1 60 19.470703 z " />
  </g>
</svg>
